<?xml version="1.0" encoding="UTF-8"?>
<svg id="Layer_1" data-name="Layer 1" xmlns="http://www.w3.org/2000/svg" viewBox="0 0 89 117.7">
  <defs>
    <style>
      .cls-1 {
        fill: #c3ff0a;
        stroke-width: 0px;
      }
    </style>
  </defs>
  <path class="cls-1" d="M56.8,21.6c-2.4-6.6-6.2-13.7-11.4-21.4l-.2-.1c0-.1-.1-.1-.2-.1h-.5c-.1.1-.2.1-.2.1-5.2,7.7-9.1,14.8-11.5,21.4-1.8,5,.6,10.6,3.5,15.5,2.7,4.6,5.2,8.5,7.7,11.7.2.3.4.4.7.4s.5-.1.7-.4c2.5-3.2,5.1-7.1,7.8-11.7,2.9-4.9,5.4-10.4,3.6-15.4Z"/>
  <path class="cls-1" d="M33.5,57.1c-.2-5.8-2.8-10.3-7.8-13.6-4-2.6-7.8-4.7-11.3-6.4,0-.1-.1-.1-.2-.1-.4,0-.7.2-.7.6-.5,8.6.8,17.2,8,23.1,3.3,2.7,7.1,5.2,11.1,7.4q.1.1.2.1c.2,0,.5-.1.5-.4.2-3,.3-6.6.2-10.7Z"/>
  <path class="cls-1" d="M75.6,37.6v-.2c-.2-.3-.6-.5-.9-.3-3.5,1.6-7.2,3.8-11.2,6.4-4.9,3.3-7.5,7.8-7.6,13.6-.1,4.1,0,7.6.3,10.6,0,.1.1.1.1.2.1.2.4.3.6.2,4-2.2,7.7-4.7,11-7.5,7-5.9,8.3-14.4,7.7-23Z"/>
  <path class="cls-1" d="M88.9,53.8c-.1-.2-.4-.3-.7-.2-3.41,1.91-6.69,3.95-9.87,6.13-.52.23-1.03.58-1.52,1.06-4.1,2.91-8.01,6.07-11.72,9.51-9,8.5-14.4,19.1-17.7,31,0,.1-.2.2-.3.2-.2,0-.3-.1-.3-.3v-43.3c0-.3-.3-.6-.6-.6-.7-.1-1.3-.1-1.7-.1s-1,0-1.6.2c-.3,0-.6.3-.6.6l-.2,43.3c0,.1-.1.3-.2.3-.2.1-.4,0-.4-.2-3.3-12-8.6-22.6-17.6-31.1-6.9-6.6-14.6-12.1-23-16.8-.1-.1-.2-.1-.3-.1C.3,53.4,0,53.7,0,54c-.1,26.8,14,54.2,40.7,63.3.9.2,2.1.4,3.7.4s2.8-.1,3.7-.4c26.7-9,40.9-36.3,40.9-63.2,0-.1-.1-.2-.1-.3Z"/>
</svg>