<?xml version="1.0" encoding="UTF-8"?>
<svg id="Layer_1" data-name="Layer 1" xmlns="http://www.w3.org/2000/svg" viewBox="0 0 89 117.7">
  <defs>
    <style>
      .cls-1 {
        fill: #c3ff0a;
        stroke-width: 0px;
      }
    </style>
  </defs>
  <path class="cls-1" d="M45,0c.1,0,.2,0,.2.1l.2.1c5.2,7.7,9,14.8,11.4,21.4,1.8,5-.7,10.5-3.6,15.4-2.7,4.6-5.3,8.5-7.8,11.7-.2.3-.4.4-.7.4s-.5-.1-.7-.4c-2.5-3.2-5-7.1-7.7-11.7-2.9-4.9-5.3-10.5-3.5-15.5,2.4-6.6,6.3-13.7,11.5-21.4,0,0,.1,0,.2-.1h.5ZM37.5,25.3c0,4.9,4.4,12,7,16l.2.2c.1,0,.2.1.3.1s.2,0,.3-.1c.1,0,.1-.1.2-.2,2.6-3.9,7.1-11.1,7.1-15.9s-4.4-12-7-16l-.2-.2c-.1,0-.2-.1-.3-.1s-.2,0-.3.1c-.1,0-.1.1-.2.2-2.6,3.9-7.1,11-7.1,15.9Z"/>
  <path class="cls-1" d="M13.5,37.6c0-.4.3-.6.7-.6.1,0,.2,0,.2.1,3.5,1.7,7.3,3.8,11.3,6.4,5,3.3,7.6,7.8,7.8,13.6.1,4.1,0,7.7-.2,10.7,0,.3-.3.4-.5.4q-.1,0-.2-.1c-4-2.2-7.8-4.7-11.1-7.4-7.2-5.9-8.5-14.5-8-23.1ZM20.9,53.8c1.4,2.2,4.7,4.3,7,5.5.3.1.6,0,.7-.2q0-.1.1-.2c.3-3-.4-5.7-1.9-8.2-1.4-2.2-4.7-4.3-7-5.5-.3-.1-.6,0-.7.2q0,.1-.1.2c-.3,3,.4,5.7,1.9,8.2Z"/>
  <path class="cls-1" d="M75.6,37.6c.6,8.6-.7,17.1-7.7,23-3.3,2.8-7,5.3-11,7.5-.2.1-.5,0-.6-.2,0-.1-.1-.1-.1-.2-.3-3-.4-6.5-.3-10.6.1-5.8,2.7-10.3,7.6-13.6,4-2.6,7.7-4.8,11.2-6.4.3-.2.7,0,.9.3v.2ZM62.9,50.5c-1.6,2.3-2.4,5.1-2.4,8.5,0,.1.1.3.3.3h.1c3.1-1.3,5.5-3,7-5.3,1.6-2.3,2.4-5.1,2.6-8.4,0-.1-.1-.3-.3-.3h-.1c-3.2,1.2-5.6,2.9-7.2,5.2Z"/>
  <path class="cls-1" d="M44.5,57.2c.4,0,1,0,1.7.1.3,0,.6.3.6.6v43.3c0,.2.1.3.3.3.1,0,.3-.1.3-.2,3.3-11.9,8.7-22.5,17.7-31,7-6.5,14.7-12,23.1-16.7.3-.1.6,0,.7.2,0,.1.1.2.1.3,0,26.9-14.2,54.2-40.9,63.2-.9.3-2.1.4-3.7.4s-2.8-.2-3.7-.4C14,108.2-.1,80.8,0,54c0-.3.3-.6.6-.6.1,0,.2,0,.3.1,8.4,4.7,16.1,10.2,23,16.8,9,8.5,14.3,19.1,17.6,31.1,0,.2.2.3.4.2.1,0,.2-.2.2-.3l.2-43.3c0-.3.3-.6.6-.6.6-.2,1.2-.2,1.6-.2ZM15.5,91.8c5.5,8.2,13.9,15.9,23.2,20.1.2.1.4,0,.5-.2v-.2c-1.8-9.5-5.2-20.4-10.6-28.5-5.4-8.1-14.2-15.4-22.3-20.6-.2-.1-.4-.1-.6.1,0,.1-.1.1-.1.2.4,10.2,4.4,20.9,9.9,29.1ZM73.5,91.7c5.5-8.1,9.5-18.9,9.9-29,0-.2-.2-.4-.4-.4-.1,0-.2,0-.2.1-8.1,5.2-17,12.5-22.4,20.5s-8.9,18.9-10.7,28.4c0,.2.1.4.3.5h.2c9.3-4.2,17.8-11.9,23.3-20.1Z"/>
</svg>